<?xml version="1.0" standalone="no"?><!DOCTYPE svg PUBLIC "-//W3C//DTD SVG 1.1//EN" "http://www.w3.org/Graphics/SVG/1.1/DTD/svg11.dtd"><svg t="1563760446805" class="icon" viewBox="0 0 1024 1024" version="1.1" xmlns="http://www.w3.org/2000/svg" p-id="2068" xmlns:xlink="http://www.w3.org/1999/xlink" width="64" height="64"><defs><style type="text/css"></style></defs><path d="M511.6 112.5c-291.8 0-399.7 255-399.7 398s103.8 400.6 391.3 400.6c0 0 71.4 1.3 71.4-63.2 0-64.4-32.1-43.8-32.1-90.1 0-46.4 32.1-67 47.5-67 15.4 0 117 7.7 173.6-14.3 56.5-21.7 147.7-91.3 147.7-209.8 0-104.3-107.9-354.2-399.7-354.2zM267.9 511.9c-18.4 0-36.1-7.3-49.2-20.4-13-13.1-20.3-30.8-20.3-49.2-0.7-25.3 12.3-48.9 34.1-61.8 21.8-12.9 48.8-12.9 70.6 0 21.8 12.9 34.8 36.5 34.1 61.8 0.2 38.3-30.9 69.5-69.3 69.6z m130.9-172.2c-18.4 0-36.1-7.3-49.1-20.4-13-13-20.3-30.7-20.3-49.2 0-38.3 31.1-69.4 69.4-69.4 38.3 0 69.4 31.1 69.4 69.4 0.1 38.5-31 69.6-69.4 69.6z m222.6 0c-38.3 0-69.4-31.1-69.4-69.6-0.7-25.3 12.3-48.9 34.1-61.8a69.7 69.7 0 0 1 70.6 0c21.8 12.9 34.8 36.5 34.1 61.8 0.1 38.5-31 69.6-69.4 69.6z m132.2 172.2c-38.3 0-69.4-31.1-69.4-69.6-0.7-25.3 12.3-48.9 34.1-61.8 21.8-12.9 48.8-12.9 70.6 0 21.8 12.9 34.8 36.5 34.1 61.8 0.1 18.4-7.2 36.1-20.2 49.2-13.1 13-30.7 20.4-49.2 20.4z m0 0" p-id="2069" fill="#bfbfbf"></path></svg>