<?xml version="1.0" standalone="no"?><!DOCTYPE svg PUBLIC "-//W3C//DTD SVG 1.1//EN" "http://www.w3.org/Graphics/SVG/1.1/DTD/svg11.dtd"><svg t="1563761591078" class="icon" viewBox="0 0 1024 1024" version="1.1" xmlns="http://www.w3.org/2000/svg" p-id="4524" xmlns:xlink="http://www.w3.org/1999/xlink" width="64" height="64"><defs><style type="text/css"></style></defs><path d="M246.8 366c0.8-0.2 1.6-0.2 2.4-0.4-1 0.2-1.6 0.4-2.4 0.4z m436.2 240.8C661.4 495.4 564.4 412 448 412c-68 0-130.2 24-173 78.2 58.8 4.4 113.4 26.2 155.4 68.4 31.2 31.4 53.2 69.8 64.2 111.6h-57.4c-26.2-75.2-96-129-181.2-129-10.2 0-24.6 1.2-35.4 3.4-91.4 18.8-156.6 95.2-156.6 190 0 106.8 86 193.6 192 193.6h416c88.2 0 160-72.2 160-161.2-0.2-85.4-65.8-154.4-149-160.2z" p-id="4525" fill="#bfbfbf"></path><path d="M225 450.8c27.2-34.6 61.4-61 101.6-78.4 36.8-16 77.6-24 121.4-24 12.2 0 24.4 0.8 36.4 2.2-12.2-36.2-18.8-75.2-18.8-115.6 0-49.2 9.8-96.2 27.6-138.8C323.8 137.4 198 291.4 198 474.6c0 3.2 0 6.4 0.2 9.6 0.2 0 0.4-0.2 0.6-0.2l26.2-33.2z m610.2 162.8c26.6 28.4 45.2 63 54.2 100.2 33-42.8 57.4-92.8 70.6-147-42.4 18-89 27.8-137.8 27.8h-7.2c7 5.8 13.8 12.2 20.2 19z" p-id="4526" fill="#bfbfbf"></path></svg>